<svg xmlns="http://www.w3.org/2000/svg" width="1043" height="710" viewBox="0 0 1043 710" fill="none">
<style>
  .a{
    fill:#AFD0E8;
  }
  .b{
    fill:#3F3D56;
  }
  .c{
    fill:#2F2E41;
  }
  .d{
    fill:#8985A8;
  }
</style>
    <path d="M206 140.4H198.3V152.8H206V140.4Z" class="a"/>
    <path d="M158.2 121.9V125H161.3V131.2H158.2V134.3H165.9V121.9H158.2Z" class="a"/>
    <path d="M206 217.6H198.3V229.9H206V217.6Z" class="a"/>
    <path d="M277 240.7H269.3V253.1H277V240.7Z" class="a"/>
    <path d="M277 373.5H269.3V385.8H277V373.5Z" class="a"/>
    <path d="M314 63.3H306.3V75.6H314V63.3Z" class="a"/>
    <path d="M334.1 341H323.3V342.6H334.1V341Z" class="a"/>
    <path d="M499.2 140.4V143.5H502.3V149.7H499.2V152.8H506.9V140.4H499.2Z" class="a"/>
    <path d="M351.1 239.2V242.3H354.2V248.5H351.1V251.5H358.8V239.2H351.1Z" class="a"/>
    <path d="M607.3 101.9H599.5V114.2H607.3V101.9Z" class="a"/>
    <path d="M584.1 81.8V84.9H587.2V91H584.1V94.1H591.8V81.8H584.1Z" class="a"/>
    <path d="M577.9 200.6H570.2V213H577.9V200.6Z" class="a"/>
    <path d="M599.5 260.8V263.9H602.6V270.1H599.5V273.1H607.3V260.8H599.5Z" class="a"/>
    <path d="M577.9 373.5H570.2V385.8H577.9V373.5Z" class="a"/>
    <path d="M662.8 373.5H655.1V385.8H662.8V373.5Z" class="a"/>
    <path d="M692.1 395.1V398.1H695.2V404.3H692.1V407.4H699.8V395.1H692.1Z" class="a"/>
    <path d="M631.9 86.4H624.2V98.8H631.9V86.4Z" class="a"/>
    <path d="M624.2 160.5V163.6H627.3V169.8H624.2V172.8H631.9V160.5H624.2Z" class="a"/>
    <path d="M712.2 294.8V297.8H715.3V304H712.2V307.1H719.9V294.8H712.2Z" class="a"/>
      <path d="M875 0H0V470.7H875V0Z" class="b"/>
      <path d="M165.9 66.4H158.2V78.7H165.9V66.4Z" class="a"/>
      <path d="M192.1 63.3H184.4V75.6H192.1V63.3Z" class="a"/>
      <path d="M206 63.3H198.3V75.6H206V63.3Z" class="a"/>
      <path d="M206 100.3H198.3V112.7H206V100.3Z" class="a"/>
      <path d="M221.5 81.8H213.7V94.1H221.5V81.8Z" class="a"/>
      <path d="M221.5 101.9H213.7V114.2H221.5V101.9Z" class="a"/>
      <path d="M221.5 160.5H213.7V172.8H221.5V160.5Z" class="a"/>
      <path d="M206 236.1H198.3V248.5H206V236.1Z" class="a"/>
      <path d="M192.1 160.5H184.4V172.8H192.1V160.5Z" class="a"/>
      <path d="M165.9 86.4H158.2V98.8H165.9V86.4Z" class="a"/>
      <path d="M165.9 279.3H158.2V291.7H165.9V279.3Z" class="a"/>
      <path d="M165.9 319.4H158.2V331.8H165.9V319.4Z" class="a"/>
      <path d="M165.9 339.5H158.2V351.9H165.9V339.5Z" class="a"/>
      <path d="M165.9 108H155.1V109.6H165.9V108Z" class="a"/>
      <path d="M207.6 126.5H196.8V128.1H207.6V126.5Z" class="a"/>
      <path d="M165.9 206.8H155.1V208.3H165.9V206.8Z" class="a"/>
      <path d="M165.9 223.8H155.1V225.3H165.9V223.8Z" class="a"/>
      <path d="M207.6 322.5H196.8V324.1H207.6V322.5Z" class="a"/>
      <path d="M195.2 359.6H184.4V361.1H195.2V359.6Z" class="a"/>
      <path d="M184.4 100.3V103.4H187.5V109.6H184.4V112.7H192.1V100.3H184.4Z" class="a"/>
      <path d="M213.7 120.4V123.5H216.8V129.6H213.7V132.7H221.5V120.4H213.7Z" class="a"/>
      <path d="M213.7 180.6V183.6H216.8V189.8H213.7V192.9H221.5V180.6H213.7Z" class="a"/>
      <path d="M213.7 200.6V203.7H216.8V209.9H213.7V213H221.5V200.6H213.7Z" class="a"/>
      <path d="M213.7 138.9V142H216.8V148.1H213.7V151.2H221.5V138.9H213.7Z" class="a"/>
      <path d="M198.3 81.8V84.9H201.4V91H198.3V94.1H206V81.8H198.3Z" class="a"/>
      <path d="M206 180.6H198.3V192.9H206V180.6Z" class="a"/>
      <path d="M198.3 199.1V202.2H201.4V208.3H198.3V211.4H206V199.1H198.3Z" class="a"/>
      <path d="M184.4 120.4V123.5H187.5V129.6H184.4V132.7H192.1V120.4H184.4Z" class="a"/>
      <path d="M184.4 140.4V143.5H187.5V149.7H184.4V152.8H192.1V140.4H184.4Z" class="a"/>
      <path d="M192.1 200.6H184.4V213H192.1V200.6Z" class="a"/>
      <path d="M184.4 180.6V183.6H187.5V189.8H184.4V192.9H192.1V180.6H184.4Z" class="a"/>
      <path d="M192.1 240.7H184.4V253.1H192.1V240.7Z" class="a"/>
      <path d="M184.4 220.7V223.8H187.5V229.9H184.4V233H192.1V220.7H184.4Z" class="a"/>
      <path d="M192.1 280.9H184.4V293.2H192.1V280.9Z" class="a"/>
      <path d="M206 277.8H198.3V290.1H206V277.8Z" class="a"/>
      <path d="M184.4 260.8V263.9H187.5V270.1H184.4V273.1H192.1V260.8H184.4Z" class="a"/>
      <path d="M213.7 260.8V263.9H216.8V270.1H213.7V273.1H221.5V260.8H213.7Z" class="a"/>
      <path d="M300.2 81.8H292.4V94.1H300.2V81.8Z" class="a"/>
      <path d="M300.2 101.9H292.4V114.2H300.2V101.9Z" class="a"/>
      <path d="M300.2 160.5H292.4V172.8H300.2V160.5Z" class="a"/>
      <path d="M292.4 120.4V123.5H295.5V129.6H292.4V132.7H300.2V120.4H292.4Z" class="a"/>
      <path d="M292.4 180.6V183.6H295.5V189.8H292.4V192.9H300.2V180.6H292.4Z" class="a"/>
      <path d="M292.4 200.6V203.7H295.5V209.9H292.4V213H300.2V200.6H292.4Z" class="a"/>
      <path d="M292.4 138.9V142H295.5V148.1H292.4V151.2H300.2V138.9H292.4Z" class="a"/>
      <path d="M292.4 260.8V263.9H295.5V270.1H292.4V273.1H300.2V260.8H292.4Z" class="a"/>
      <path d="M192.1 321H184.4V333.3H192.1V321Z" class="a"/>
      <path d="M206 297.8H198.3V310.2H206V297.8Z" class="a"/>
      <path d="M192.1 373.5H184.4V385.8H192.1V373.5Z" class="a"/>
      <path d="M206 336.4H198.3V348.8H206V336.4Z" class="a"/>
      <path d="M184.4 300.9V304H187.5V310.2H184.4V313.3H192.1V300.9H184.4Z" class="a"/>
      <path d="M184.4 395.1V398.1H187.5V404.3H184.4V407.4H192.1V395.1H184.4Z" class="a"/>
      <path d="M277 63.3H269.3V75.6H277V63.3Z" class="a"/>
      <path d="M277 160.5H269.3V172.8H277V160.5Z" class="a"/>
      <path d="M280.1 359.6H269.3V361.1H280.1V359.6Z" class="a"/>
      <path d="M269.3 100.3V103.4H272.4V109.6H269.3V112.7H277V100.3H269.3Z" class="a"/>
      <path d="M269.3 120.4V123.5H272.4V129.6H269.3V132.7H277V120.4H269.3Z" class="a"/>
      <path d="M269.3 140.4V143.5H272.4V149.7H269.3V152.8H277V140.4H269.3Z" class="a"/>
      <path d="M277 200.6H269.3V213H277V200.6Z" class="a"/>
      <path d="M269.3 180.6V183.6H272.4V189.8H269.3V192.9H277V180.6H269.3Z" class="a"/>
      <path d="M269.3 220.7V223.8H272.4V229.9H269.3V233H277V220.7H269.3Z" class="a"/>
      <path d="M277 280.9H269.3V293.2H277V280.9Z" class="a"/>
      <path d="M269.3 260.8V263.9H272.4V270.1H269.3V273.1H277V260.8H269.3Z" class="a"/>
      <path d="M277 321H269.3V333.3H277V321Z" class="a"/>
      <path d="M269.3 300.9V304H272.4V310.2H269.3V313.3H277V300.9H269.3Z" class="a"/>
      <path d="M269.3 395.1V398.1H272.4V404.3H269.3V407.4H277V395.1H269.3Z" class="a"/>
      <path d="M314 160.5H306.3V172.8H314V160.5Z" class="a"/>
      <path d="M317.1 359.6H306.3V361.1H317.1V359.6Z" class="a"/>
      <path d="M306.3 100.3V103.4H309.4V109.6H306.3V112.7H314V100.3H306.3Z" class="a"/>
      <path d="M306.3 120.4V123.5H309.4V129.6H306.3V132.7H314V120.4H306.3Z" class="a"/>
      <path d="M306.3 140.4V143.5H309.4V149.7H306.3V152.8H314V140.4H306.3Z" class="a"/>
      <path d="M314 200.6H306.3V213H314V200.6Z" class="a"/>
      <path d="M306.3 180.6V183.6H309.4V189.8H306.3V192.9H314V180.6H306.3Z" class="a"/>
      <path d="M314 240.7H306.3V253.1H314V240.7Z" class="a"/>
      <path d="M306.3 220.7V223.8H309.4V229.9H306.3V233H314V220.7H306.3Z" class="a"/>
      <path d="M314 280.9H306.3V293.2H314V280.9Z" class="a"/>
      <path d="M306.3 260.8V263.9H309.4V270.1H306.3V273.1H314V260.8H306.3Z" class="a"/>
      <path d="M314 321H306.3V333.3H314V321Z" class="a"/>
      <path d="M314 373.5H306.3V385.8H314V373.5Z" class="a"/>
      <path d="M306.3 300.9V304H309.4V310.2H306.3V313.3H314V300.9H306.3Z" class="a"/>
      <path d="M306.3 395.1V398.1H309.4V404.3H306.3V407.4H314V395.1H306.3Z" class="a"/>
      <path d="M198.3 373.5V376.5H201.4V382.7H198.3V385.8H206V373.5H198.3Z" class="a"/>
      <path d="M198.3 393.5V396.6H201.4V402.8H198.3V405.9H206V393.5H198.3Z" class="a"/>
      <path d="M158.2 160.5V163.6H161.3V169.8H158.2V172.8H165.9V160.5H158.2Z" class="a"/>
      <path d="M158.2 239.2V242.3H161.3V248.5H158.2V251.5H165.9V239.2H158.2Z" class="a"/>
      <path d="M158.2 259.3V262.3H161.3V268.5H158.2V271.6H165.9V259.3H158.2Z" class="a"/>
      <path d="M158.2 299.4V302.5H161.3V308.6H158.2V311.7H165.9V299.4H158.2Z" class="a"/>
      <path d="M158.2 356.5V359.6H161.3V365.7H158.2V368.8H165.9V356.5H158.2Z" class="a"/>
      <path d="M158.2 373.5V376.5H161.3V382.7H158.2V385.8H165.9V373.5H158.2Z" class="a"/>
      <path d="M246.1 66.4H238.4V78.7H246.1V66.4Z" class="a"/>
      <path d="M246.1 86.4H238.4V98.8H246.1V86.4Z" class="a"/>
      <path d="M246.1 108H235.3V109.6H246.1V108Z" class="a"/>
      <path d="M246.1 206.8H235.3V208.3H246.1V206.8Z" class="a"/>
      <path d="M246.1 223.8H235.3V225.3H246.1V223.8Z" class="a"/>
      <path d="M238.4 121.9V125H241.5V131.2H238.4V134.3H246.1V121.9H238.4Z" class="a"/>
      <path d="M238.4 160.5V163.6H241.5V169.8H238.4V172.8H246.1V160.5H238.4Z" class="a"/>
      <path d="M238.4 239.2V242.3H241.5V248.5H238.4V251.5H246.1V239.2H238.4Z" class="a"/>
      <path d="M334.1 200.6H326.4V213H334.1V200.6Z" class="a"/>
      <path d="M334.1 220.7H326.4V233H334.1V220.7Z" class="a"/>
      <path d="M334.1 242.3H323.3V243.8H334.1V242.3Z" class="a"/>
      <path d="M334.1 358H323.3V359.6H334.1V358Z" class="a"/>
      <path d="M326.4 256.2V259.3H329.5V265.4H326.4V268.5H334.1V256.2H326.4Z" class="a"/>
      <path d="M326.4 294.8V297.8H329.5V304H326.4V307.1H334.1V294.8H326.4Z" class="a"/>
      <path d="M326.4 373.5V376.5H329.5V382.7H326.4V385.8H334.1V373.5H326.4Z" class="a"/>
      <path d="M358.8 66.4H351.1V78.7H358.8V66.4Z" class="a"/>
      <path d="M385 63.3H377.3V75.6H385V63.3Z" class="a"/>
      <path d="M398.9 63.3H391.2V75.6H398.9V63.3Z" class="a"/>
      <path d="M398.9 100.3H391.2V112.7H398.9V100.3Z" class="a"/>
      <path d="M414.4 81.8H406.6V94.1H414.4V81.8Z" class="a"/>
      <path d="M414.4 101.9H406.6V114.2H414.4V101.9Z" class="a"/>
      <path d="M398.9 140.4H391.2V152.8H398.9V140.4Z" class="a"/>
      <path d="M385 160.5H377.3V172.8H385V160.5Z" class="a"/>
      <path d="M358.8 86.4H351.1V98.8H358.8V86.4Z" class="a"/>
      <path d="M358.8 319.4H351.1V331.8H358.8V319.4Z" class="a"/>
      <path d="M358.8 339.5H351.1V351.9H358.8V339.5Z" class="a"/>
      <path d="M358.8 108H348V109.6H358.8V108Z" class="a"/>
      <path d="M400.5 126.5H389.7V128.1H400.5V126.5Z" class="a"/>
      <path d="M358.8 206.8H348V208.3H358.8V206.8Z" class="a"/>
      <path d="M358.8 223.8H348V225.3H358.8V223.8Z" class="a"/>
      <path d="M351.1 121.9V125H354.2V131.2H351.1V134.3H358.8V121.9H351.1Z" class="a"/>
      <path d="M377.3 100.3V103.4H380.4V109.6H377.3V112.7H385V100.3H377.3Z" class="a"/>
      <path d="M406.6 120.4V123.5H409.7V129.6H406.6V132.7H414.4V120.4H406.6Z" class="a"/>
      <path d="M406.6 138.9V142H409.7V148.1H406.6V151.2H414.4V138.9H406.6Z" class="a"/>
      <path d="M391.2 81.8V84.9H394.3V91H391.2V94.1H398.9V81.8H391.2Z" class="a"/>
      <path d="M377.3 120.4V123.5H380.4V129.6H377.3V132.7H385V120.4H377.3Z" class="a"/>
      <path d="M377.3 140.4V143.5H380.4V149.7H377.3V152.8H385V140.4H377.3Z" class="a"/>
      <path d="M377.3 180.6V183.6H380.4V189.8H377.3V192.9H385V180.6H377.3Z" class="a"/>
      <path d="M493.1 81.8H485.3V94.1H493.1V81.8Z" class="a"/>
      <path d="M493.1 101.9H485.3V114.2H493.1V101.9Z" class="a"/>
      <path d="M493.1 160.5H485.3V172.8H493.1V160.5Z" class="a"/>
      <path d="M485.3 120.4V123.5H488.4V129.6H485.3V132.7H493.1V120.4H485.3Z" class="a"/>
      <path d="M485.3 180.6V183.6H488.4V189.8H485.3V192.9H493.1V180.6H485.3Z" class="a"/>
      <path d="M485.3 200.6V203.7H488.4V209.9H485.3V213H493.1V200.6H485.3Z" class="a"/>
      <path d="M485.3 138.9V142H488.4V148.1H485.3V151.2H493.1V138.9H485.3Z" class="a"/>
      <path d="M485.3 260.8V263.9H488.4V270.1H485.3V273.1H493.1V260.8H485.3Z" class="a"/>
      <path d="M469.9 63.3H462.2V75.6H469.9V63.3Z" class="a"/>
      <path d="M469.9 160.5H462.2V172.8H469.9V160.5Z" class="a"/>
      <path d="M462.2 100.3V103.4H465.3V109.6H462.2V112.7H469.9V100.3H462.2Z" class="a"/>
      <path d="M462.2 120.4V123.5H465.3V129.6H462.2V132.7H469.9V120.4H462.2Z" class="a"/>
      <path d="M462.2 140.4V143.5H465.3V149.7H462.2V152.8H469.9V140.4H462.2Z" class="a"/>
      <path d="M506.9 63.3H499.2V75.6H506.9V63.3Z" class="a"/>
      <path d="M506.9 160.5H499.2V172.8H506.9V160.5Z" class="a"/>
      <path d="M510 359.6H499.2V361.1H510V359.6Z" class="a"/>
      <path d="M499.2 100.3V103.4H502.3V109.6H499.2V112.7H506.9V100.3H499.2Z" class="a"/>
      <path d="M499.2 120.4V123.5H502.3V129.6H499.2V132.7H506.9V120.4H499.2Z" class="a"/>
      <path d="M506.9 200.6H499.2V213H506.9V200.6Z" class="a"/>
      <path d="M499.2 180.6V183.6H502.3V189.8H499.2V192.9H506.9V180.6H499.2Z" class="a"/>
      <path d="M506.9 240.7H499.2V253.1H506.9V240.7Z" class="a"/>
      <path d="M499.2 220.7V223.8H502.3V229.9H499.2V233H506.9V220.7H499.2Z" class="a"/>
      <path d="M506.9 280.9H499.2V293.2H506.9V280.9Z" class="a"/>
      <path d="M499.2 260.8V263.9H502.3V270.1H499.2V273.1H506.9V260.8H499.2Z" class="a"/>
      <path d="M506.9 321H499.2V333.3H506.9V321Z" class="a"/>
      <path d="M506.9 373.5H499.2V385.8H506.9V373.5Z" class="a"/>
      <path d="M499.2 300.9V304H502.3V310.2H499.2V313.3H506.9V300.9H499.2Z" class="a"/>
      <path d="M499.2 395.1V398.1H502.3V404.3H499.2V407.4H506.9V395.1H499.2Z" class="a"/>
      <path d="M351.1 160.5V163.6H354.2V169.8H351.1V172.8H358.8V160.5H351.1Z" class="a"/>
      <path d="M351.1 259.3V262.3H354.2V268.5H351.1V271.6H358.8V259.3H351.1Z" class="a"/>
      <path d="M351.1 356.5V359.6H354.2V365.7H351.1V368.8H358.8V356.5H351.1Z" class="a"/>
      <path d="M351.1 373.5V376.5H354.2V382.7H351.1V385.8H358.8V373.5H351.1Z" class="a"/>
      <path d="M439 66.4H431.3V78.7H439V66.4Z" class="a"/>
      <path d="M439 86.4H431.3V98.8H439V86.4Z" class="a"/>
      <path d="M439 108H428.2V109.6H439V108Z" class="a"/>
      <path d="M431.3 121.9V125H434.4V131.2H431.3V134.3H439V121.9H431.3Z" class="a"/>
      <path d="M527 200.6H519.3V213H527V200.6Z" class="a"/>
      <path d="M527 220.7H519.3V233H527V220.7Z" class="a"/>
      <path d="M527 242.3H516.2V243.8H527V242.3Z" class="a"/>
      <path d="M527 341H516.2V342.6H527V341Z" class="a"/>
      <path d="M527 358H516.2V359.6H527V358Z" class="a"/>
      <path d="M519.3 256.2V259.3H522.4V265.4H519.3V268.5H527V256.2H519.3Z" class="a"/>
      <path d="M519.3 294.8V297.8H522.4V304H519.3V307.1H527V294.8H519.3Z" class="a"/>
      <path d="M519.3 373.5V376.5H522.4V382.7H519.3V385.8H527V373.5H519.3Z" class="a"/>
      <path d="M551.7 66.4H544V78.7H551.7V66.4Z" class="a"/>
      <path d="M577.9 63.3H570.2V75.6H577.9V63.3Z" class="a"/>
      <path d="M591.8 63.3H584.1V75.6H591.8V63.3Z" class="a"/>
      <path d="M591.8 100.3H584.1V112.7H591.8V100.3Z" class="a"/>
      <path d="M607.3 81.8H599.5V94.1H607.3V81.8Z" class="a"/>
      <path d="M591.8 140.4H584.1V152.8H591.8V140.4Z" class="a"/>
      <path d="M607.3 160.5H599.5V172.8H607.3V160.5Z" class="a"/>
      <path d="M591.8 236.1H584.1V248.5H591.8V236.1Z" class="a"/>
      <path d="M577.9 160.5H570.2V172.8H577.9V160.5Z" class="a"/>
      <path d="M551.7 86.4H544V98.8H551.7V86.4Z" class="a"/>
      <path d="M551.7 279.3H544V291.7H551.7V279.3Z" class="a"/>
      <path d="M551.7 319.4H544V331.8H551.7V319.4Z" class="a"/>
      <path d="M551.7 339.5H544V351.9H551.7V339.5Z" class="a"/>
      <path d="M551.7 108H540.9V109.6H551.7V108Z" class="a"/>
      <path d="M593.4 126.5H582.6V128.1H593.4V126.5Z" class="a"/>
      <path d="M551.7 206.8H540.9V208.3H551.7V206.8Z" class="a"/>
      <path d="M551.7 223.8H540.9V225.3H551.7V223.8Z" class="a"/>
      <path d="M593.4 322.5H582.6V324.1H593.4V322.5Z" class="a"/>
      <path d="M581 359.6H570.2V361.1H581V359.6Z" class="a"/>
      <path d="M544 121.9V125H547.1V131.2H544V134.3H551.7V121.9H544Z" class="a"/>
      <path d="M570.2 100.3V103.4H573.3V109.6H570.2V112.7H577.9V100.3H570.2Z" class="a"/>
      <path d="M599.5 120.4V123.5H602.6V129.6H599.5V132.7H607.3V120.4H599.5Z" class="a"/>
      <path d="M599.5 180.6V183.6H602.6V189.8H599.5V192.9H607.3V180.6H599.5Z" class="a"/>
      <path d="M599.5 200.6V203.7H602.6V209.9H599.5V213H607.3V200.6H599.5Z" class="a"/>
      <path d="M599.5 138.9V142H602.6V148.1H599.5V151.2H607.3V138.9H599.5Z" class="a"/>
      <path d="M591.8 180.6H584.1V192.9H591.8V180.6Z" class="a"/>
      <path d="M591.8 217.6H584.1V229.9H591.8V217.6Z" class="a"/>
      <path d="M584.1 199.1V202.2H587.2V208.3H584.1V211.4H591.8V199.1H584.1Z" class="a"/>
      <path d="M570.2 120.4V123.5H573.3V129.6H570.2V132.7H577.9V120.4H570.2Z" class="a"/>
      <path d="M570.2 140.4V143.5H573.3V149.7H570.2V152.8H577.9V140.4H570.2Z" class="a"/>
      <path d="M570.2 180.6V183.6H573.3V189.8H570.2V192.9H577.9V180.6H570.2Z" class="a"/>
      <path d="M577.9 240.7H570.2V253.1H577.9V240.7Z" class="a"/>
      <path d="M570.2 220.7V223.8H573.3V229.9H570.2V233H577.9V220.7H570.2Z" class="a"/>
      <path d="M577.9 280.9H570.2V293.2H577.9V280.9Z" class="a"/>
      <path d="M591.8 277.8H584.1V290.1H591.8V277.8Z" class="a"/>
      <path d="M570.2 260.8V263.9H573.3V270.1H570.2V273.1H577.9V260.8H570.2Z" class="a"/>
      <path d="M686 81.8H678.2V94.1H686V81.8Z" class="a"/>
      <path d="M686 160.5H678.2V172.8H686V160.5Z" class="a"/>
      <path d="M678.2 120.4V123.5H681.3V129.6H678.2V132.7H686V120.4H678.2Z" class="a"/>
      <path d="M678.2 180.6V183.6H681.3V189.8H678.2V192.9H686V180.6H678.2Z" class="a"/>
      <path d="M678.2 200.6V203.7H681.3V209.9H678.2V213H686V200.6H678.2Z" class="a"/>
      <path d="M678.2 138.9V142H681.3V148.1H678.2V151.2H686V138.9H678.2Z" class="a"/>
      <path d="M678.2 260.8V263.9H681.3V270.1H678.2V273.1H686V260.8H678.2Z" class="a"/>
      <path d="M577.9 321H570.2V333.3H577.9V321Z" class="a"/>
      <path d="M591.8 297.8H584.1V310.2H591.8V297.8Z" class="a"/>
      <path d="M686 101.9H678.2V114.2H686V101.9Z" class="a"/>
      <path d="M591.8 336.4H584.1V348.8H591.8V336.4Z" class="a"/>
      <path d="M570.2 300.9V304H573.3V310.2H570.2V313.3H577.9V300.9H570.2Z" class="a"/>
      <path d="M570.2 395.1V398.1H573.3V404.3H570.2V407.4H577.9V395.1H570.2Z" class="a"/>
      <path d="M662.8 63.3H655.1V75.6H662.8V63.3Z" class="a"/>
      <path d="M662.8 160.5H655.1V172.8H662.8V160.5Z" class="a"/>
      <path d="M665.9 359.6H655.1V361.1H665.9V359.6Z" class="a"/>
      <path d="M655.1 100.3V103.4H658.2V109.6H655.1V112.7H662.8V100.3H655.1Z" class="a"/>
      <path d="M655.1 120.4V123.5H658.2V129.6H655.1V132.7H662.8V120.4H655.1Z" class="a"/>
      <path d="M655.1 140.4V143.5H658.2V149.7H655.1V152.8H662.8V140.4H655.1Z" class="a"/>
      <path d="M662.8 200.6H655.1V213H662.8V200.6Z" class="a"/>
      <path d="M655.1 180.6V183.6H658.2V189.8H655.1V192.9H662.8V180.6H655.1Z" class="a"/>
      <path d="M662.8 240.7H655.1V253.1H662.8V240.7Z" class="a"/>
      <path d="M655.1 220.7V223.8H658.2V229.9H655.1V233H662.8V220.7H655.1Z" class="a"/>
      <path d="M662.8 280.9H655.1V293.2H662.8V280.9Z" class="a"/>
      <path d="M655.1 260.8V263.9H658.2V270.1H655.1V273.1H662.8V260.8H655.1Z" class="a"/>
      <path d="M662.8 321H655.1V333.3H662.8V321Z" class="a"/>
      <path d="M655.1 300.9V304H658.2V310.2H655.1V313.3H662.8V300.9H655.1Z" class="a"/>
      <path d="M655.1 395.1V398.1H658.2V404.3H655.1V407.4H662.8V395.1H655.1Z" class="a"/>
      <path d="M699.8 63.3H692.1V75.6H699.8V63.3Z" class="a"/>
      <path d="M699.8 160.5H692.1V172.8H699.8V160.5Z" class="a"/>
      <path d="M702.9 359.6H692.1V361.1H702.9V359.6Z" class="a"/>
      <path d="M692.1 100.3V103.4H695.2V109.6H692.1V112.7H699.8V100.3H692.1Z" class="a"/>
      <path d="M692.1 120.4V123.5H695.2V129.6H692.1V132.7H699.8V120.4H692.1Z" class="a"/>
      <path d="M692.1 140.4V143.5H695.2V149.7H692.1V152.8H699.8V140.4H692.1Z" class="a"/>
      <path d="M699.8 200.6H692.1V213H699.8V200.6Z" class="a"/>
      <path d="M692.1 180.6V183.6H695.2V189.8H692.1V192.9H699.8V180.6H692.1Z" class="a"/>
      <path d="M699.8 240.7H692.1V253.1H699.8V240.7Z" class="a"/>
      <path d="M692.1 220.7V223.8H695.2V229.9H692.1V233H699.8V220.7H692.1Z" class="a"/>
      <path d="M699.8 280.9H692.1V293.2H699.8V280.9Z" class="a"/>
      <path d="M692.1 260.8V263.9H695.2V270.1H692.1V273.1H699.8V260.8H692.1Z" class="a"/>
      <path d="M699.8 321H692.1V333.3H699.8V321Z" class="a"/>
      <path d="M699.8 373.5H692.1V385.8H699.8V373.5Z" class="a"/>
      <path d="M692.1 300.9V304H695.2V310.2H692.1V313.3H699.8V300.9H692.1Z" class="a"/>
      <path d="M584.1 373.5V376.5H587.2V382.7H584.1V385.8H591.8V373.5H584.1Z" class="a"/>
      <path d="M584.1 393.5V396.6H587.2V402.8H584.1V405.9H591.8V393.5H584.1Z" class="a"/>
      <path d="M544 160.5V163.6H547.1V169.8H544V172.8H551.7V160.5H544Z" class="a"/>
      <path d="M544 239.2V242.3H547.1V248.5H544V251.5H551.7V239.2H544Z" class="a"/>
      <path d="M544 259.3V262.3H547.1V268.5H544V271.6H551.7V259.3H544Z" class="a"/>
      <path d="M544 299.4V302.5H547.1V308.6H544V311.7H551.7V299.4H544Z" class="a"/>
      <path d="M544 356.5V359.6H547.1V365.7H544V368.8H551.7V356.5H544Z" class="a"/>
      <path d="M544 373.5V376.5H547.1V382.7H544V385.8H551.7V373.5H544Z" class="a"/>
      <path d="M631.9 66.4H624.2V78.7H631.9V66.4Z" class="a"/>
      <path d="M631.9 108H621.1V109.6H631.9V108Z" class="a"/>
      <path d="M631.9 206.8H621.1V208.3H631.9V206.8Z" class="a"/>
      <path d="M631.9 223.8H621.1V225.3H631.9V223.8Z" class="a"/>
      <path d="M624.2 121.9V125H627.3V131.2H624.2V134.3H631.9V121.9H624.2Z" class="a"/>
      <path d="M624.2 239.2V242.3H627.3V248.5H624.2V251.5H631.9V239.2H624.2Z" class="a"/>
      <path d="M719.9 200.6H712.2V213H719.9V200.6Z" class="a"/>
      <path d="M719.9 220.7H712.2V233H719.9V220.7Z" class="a"/>
      <path d="M719.9 242.3H709.1V243.8H719.9V242.3Z" class="a"/>
      <path d="M719.9 341H709.1V342.6H719.9V341Z" class="a"/>
      <path d="M719.9 358H709.1V359.6H719.9V358Z" class="a"/>
      <path d="M712.2 256.2V259.3H715.3V265.4H712.2V268.5H719.9V256.2H712.2Z" class="a"/>
      <path d="M712.2 373.5V376.5H715.3V382.7H712.2V385.8H719.9V373.5H712.2Z" class="a"/>
      <path d="M374.1 387.7V439.7L381.1 471.7C381.1 471.7 380.1 491.7 381.1 497.7 382.1 503.7 380.1 513.7 374.1 513.7 368.1 513.7 365.1 528.7 365.1 528.7 365.1 528.7 363.1 534.7 358.1 535.7 353.1 536.7 353.1 535.7 353.1 535.7L349.1 545.7 266.1 600.7 282.1 640.7C282.1 640.7 307.1 631.7 309.1 628.7 311.1 625.7 328.1 632.7 328.1 625.7 328.1 618.7 331.1 600.7 337.1 599.7 343.1 598.7 393.1 575.7 393.1 575.7 393.1 575.7 419.1 546.7 421.1 535.7 423.1 524.7 432.1 493.7 432.1 493.7L457.1 535.7V619.7L453.1 664.7 497.1 658.7C497.1 658.7 493.1 630.7 497.1 626.7 501.1 622.7 507.1 574.7 503.1 568.7 499.1 562.7 505.1 535.7 503.1 531.7 501.1 527.7 502.1 498.7 497.1 490.7 492.1 482.7 462.1 400.7 462.1 400.7L374.1 387.7Z" class="c"/>
      <path d="M459.1 662.7C459.1 662.7 444.1 687.7 454.1 690.7 464.1 693.7 483.1 690.7 485.1 690.7 487.1 690.7 523.1 691.7 523.1 691.7 523.1 691.7 547.1 686.7 547.1 679.7 547.1 672.7 532.1 672.7 527.1 671.7 522.1 670.7 491.1 658.7 491.1 658.7L459.1 662.7Z" class="c"/>
      <path d="M270.7 601.8C270.7 601.8 241.8 598 243 608.3 244.3 618.7 254.6 634.9 255.4 636.8 255.9 638 262.2 653.8 266.2 663.8 269.1 671.1 273.5 677.8 279.1 683.4 283 687.4 287.3 690.5 290.1 689.3 296.5 686.5 290.6 672.8 289.5 667.8 288.4 662.8 287.1 629.6 287.1 629.6L270.7 601.8Z" class="c"/>
      <path d="M471.6 222.2L503.6 148.2C503.6 148.2 500.6 141.2 493.6 142.2 493.6 142.2 484.1 117.7 466.1 117.7 466.1 117.7 439.1 102.7 431.1 117.7 431.1 117.7 414.1 132.7 415.1 146.7 416.1 160.7 417.1 170.7 417.1 170.7 417.1 170.7 401.1 172.7 404.1 180.7 407.1 188.7 408.1 188.7 404.1 191.7L400.1 194.7C400.1 194.7 317.1 269.7 363.1 379.7L367.1 396.7V412.7C367.1 412.7 468.1 413.7 468.1 412.7 468.1 411.7 466.1 405.7 470.1 401.7 474.1 397.7 474.1 391.7 474.1 391.7 474.1 391.7 470.1 371.7 472.1 365.7 474.1 359.7 475.1 333.7 471.1 327.7 467.1 321.7 469.1 273.7 469.1 273.7L478.1 256.7 475.1 246.7 472.1 236.7 471.6 222.2Z" class="d"/>
      <path d="M463.1 422.7C463.1 422.7 451.1 389.7 452.1 383.7 453.1 377.7 450.1 365.7 450.1 365.7L446.1 284.7C446.1 284.7 463.1 212.7 425.1 200.7 425.1 200.7 415.5 204.9 407.6 218.4 399.8 221.8 390.4 230.6 388.1 252.7 384.1 291.7 402.1 391.7 411.1 408.7 420.1 425.7 426.1 437.7 426.1 437.7L435.5 433.5C435.9 434.3 436.1 434.7 436.1 434.7L463.1 422.7Z" style="fill:black;opacity:0.1"/>
      <path d="M469.6 210.2H467.6V257.2H469.6V210.2Z" class="b"/>
      <path d="M432.6 426.2L440.6 443.2C440.6 443.2 458.6 437.2 458.6 434.2 458.6 431.2 450.6 418.2 450.6 418.2L432.6 426.2Z" fill="#FFB8B8"/>
      <path d="M421.1 200.7C421.1 200.7 398.1 210.7 394.1 249.7 390.1 288.7 408.1 388.7 417.1 405.7 426.1 422.7 432.1 434.7 432.1 434.7L459.1 422.7C459.1 422.7 447.1 389.7 448.1 383.7 449.1 377.7 446.1 365.7 446.1 365.7L442.1 284.7C442.1 284.7 459.1 212.7 421.1 200.7Z" class="d"/>
</svg>